<?xml version="1.0" encoding="UTF-8" standalone="no"?>
<!-- Created with Inkscape (http://www.inkscape.org/) -->

<svg
   xmlns:osb="http://www.openswatchbook.org/uri/2009/osb"
   xmlns:dc="http://purl.org/dc/elements/1.1/"
   xmlns:cc="http://creativecommons.org/ns#"
   xmlns:rdf="http://www.w3.org/1999/02/22-rdf-syntax-ns#"
   xmlns:svg="http://www.w3.org/2000/svg"
   xmlns="http://www.w3.org/2000/svg"
   xmlns:sodipodi="http://sodipodi.sourceforge.net/DTD/sodipodi-0.dtd"
   xmlns:inkscape="http://www.inkscape.org/namespaces/inkscape"
   id="svg3373"
   version="1.1"
   inkscape:version="0.91 r13725"
   width="1408.125"
   height="1408.125"
   viewBox="0 0 1408.125 1408.125"
   sodipodi:docname="beats.svg">
  <metadata
     id="metadata3379">
    <rdf:RDF>
      <cc:Work
         rdf:about="">
        <dc:format>image/svg+xml</dc:format>
        <dc:type
           rdf:resource="http://purl.org/dc/dcmitype/StillImage" />
        <dc:title></dc:title>
      </cc:Work>
    </rdf:RDF>
  </metadata>
  <defs
     id="defs3377">
    <linearGradient
       id="linearGradient4186"
       osb:paint="solid">
      <stop
         style="stop-color:#000000;stop-opacity:1;"
         offset="0"
         id="stop4188" />
    </linearGradient>
  </defs>
  <sodipodi:namedview
     pagecolor="#ffffff"
     bordercolor="#666666"
     borderopacity="1"
     objecttolerance="10"
     gridtolerance="10"
     guidetolerance="10"
     inkscape:pageopacity="0"
     inkscape:pageshadow="2"
     inkscape:window-width="1366"
     inkscape:window-height="715"
     id="namedview3375"
     showgrid="false"
     inkscape:zoom="0.16759876"
     inkscape:cx="-322.57867"
     inkscape:cy="313.4984"
     inkscape:window-x="-8"
     inkscape:window-y="-8"
     inkscape:window-maximized="1"
     inkscape:current-layer="svg3373" />
  <path
     style="fill:none;fill-rule:evenodd;stroke:#000000;stroke-width:10;stroke-linecap:butt;stroke-linejoin:round;stroke-miterlimit:4;stroke-dasharray:none;stroke-opacity:1"
     d="m 0.3344932,590.13262 c 38.9292058,-2.23399 80.7908528,6.22793 117.0951368,-8.94995 17.35161,-37.69348 12.73281,34.8027 33.57424,-7.52551 12.37775,21.81787 46.41022,59.17519 43.62923,6.87259 3.72703,-18.99228 2.77385,-90.11912 19.35188,-35.9925 0.55347,43.32332 59.90269,67.48868 56.5178,9.37958 8.92543,-22.94358 2.64086,-92.25626 19.18394,-90.91954 14.53315,63.4815 12.16849,130.50754 32.32376,192.48487 31.98917,26.88099 28.67958,-57.18922 36.59802,-80.64143 -8.32193,-31.52949 18.70531,-72.57478 30.62452,-21.50941 6.59595,24.84256 23.08363,61.6658 48.94634,32.21627 48.39423,1.60735 97.07529,-15.06342 146.29616,1.79787 227.5346,38.09108 418.18158,187.30561 565.11218,358.20323 53.6393,63.44351 107.0373,128.35591 151.5694,198.26191 2.6801,5.9101 6.3533,11.2784 9.2643,17.0663"
     id="path3383"
     inkscape:connector-curvature="0" />
  <path
     style="fill:none;fill-rule:evenodd;stroke:#000000;stroke-width:10;stroke-linecap:butt;stroke-linejoin:round;stroke-miterlimit:4;stroke-dasharray:none;stroke-opacity:1"
     d="m -2.8101468,798.94563 c 20.5361978,-3.37813 44.8445438,1.43325 44.2999698,-23.20475 5.899263,-17.84361 6.709953,-46.80767 11.60238,-64.34045 5.0093,41.65211 6.924437,87.5415 6.32857,130.79041 9.726847,9.28573 4.898554,-28.08587 6.32857,-36.91664 4.671956,-14.7301 3.637461,-38.50907 6.32856,-50.62855 8.421279,31.55617 7.255572,71.57672 15.82142,102.31185 10.710866,13.6414 20.270077,-15.4443 21.095227,-27.42379 2.74098,-19.26722 19.82021,-31.98392 43.24519,-24.25951 18.90026,5.1154 49.90207,6.42938 66.45,0 37.4214,-3.48422 79.02178,8.88664 112.8595,4.21904 8.44831,-21.76291 -2.90287,-59.96743 6.3285,-79.1071 15.5719,8.99681 7.79789,44.74796 12.6572,55.90235 -2.33764,23.65242 6.023,49.71667 9.4928,63.28568 -5.30314,-49.86895 2.607,-107.01116 0,-152.9404 12.6873,-5.07729 8.51414,18.55581 16.8762,28.47856 2.85973,37.44579 15.46129,74.08016 25.3143,104.42138 1.79241,11.62378 15.734,32.56198 27.4238,16.87618 0.0582,-23.26275 -2.27389,-62.49194 6.3285,-73.8333 23.86401,1.40314 23.9819,36.8476 59.0667,31.64284 23.04796,-24.25546 76.9577,-10.62199 119.12173,-11.10105 271.17613,13.55877 547.91153,140.99442 698.88403,372.66232 39.0566,89.7374 -20.4032,225.787 -123.9413,232.6508 -116.5632,-54.3389 -87.7825,-222.9795 -98.3786,-330.5491 11.2291,-365.52062 183.8107,-696.04053 319.4085,-1027.306667 6.3595,-19.823611 11.6147,-39.97103364 17.385,-59.967286"
     id="path4204"
     inkscape:connector-curvature="0" />
  <path
     style="fill:none;fill-rule:evenodd;stroke:#000000;stroke-width:10;stroke-linecap:butt;stroke-linejoin:round;stroke-miterlimit:4;stroke-dasharray:none;stroke-opacity:1"
     d="m -3.8649068,1020.4455 c 16.1646918,-6.6206 29.3411618,32.9581 35.4153358,-1.9272 8.359917,-26.14212 5.031384,-95.51158 24.706054,-95.11083 1.497509,51.58944 9.605872,102.56543 20.04047,152.94043 18.411348,-2.5851 11.627684,-70.408 16.950771,-99.10258 -0.924963,-16.91524 6.61865,-61.40437 13.308596,-19.13884 9.19813,41.88158 5.34233,85.71482 16.83318,127.04642 4.6029,-29.3123 8.20928,-63.4427 22.52174,-88.9669 3.15395,24.3478 17.11847,37.011 30.40484,9.5457 16.80431,-0.449 31.61914,53.5711 37.16059,5.0168 5.53406,-50.3464 12.47193,35.6339 27.66817,-12.25631 16.31752,-31.48203 19.35743,-82.34615 37.0985,-104.26064 7.89771,56.17544 14.99547,112.87375 24.67207,168.75375 16.2807,62.2354 20.98018,-31.4791 20.43018,-53.9997 -3.06225,-21.97916 11.73414,-97.35717 12.94206,-39.59977 8.87494,34.00437 5.70013,73.10877 22.64677,104.03407 5.76261,-19.5441 1.8342,-107.67779 30.14203,-55.1427 4.71276,31.223 22.26365,31.8742 20.2152,-0.4446 3.98672,-48.81947 38.45424,24.3342 51.05148,-26.45223 55.52142,-22.0988 115.03493,12.66693 174.75415,-1.18908 221.93578,-1.00962 450.77922,33.63421 646.63982,143.20841 11.379,7.2735 21.9245,16.1809 29.6854,27.3291"
     id="path4206"
     inkscape:connector-curvature="0" />
</svg>
